STARTFONT 2.1
FONT -FontForge-IBM Plex Mono Light-Light-I-Normal--20-190-75-75-C-120-ISO10646-1
SIZE 19 75 75
FONTBOUNDINGBOX 13 20 0 -4
COMMENT "Generated by fontforge, http://fontforge.sourceforge.net"
COMMENT "Copyright 2017 IBM Corp. All rights reserved."
STARTPROPERTIES 41
FOUNDRY "FontForge"
FAMILY_NAME "IBM Plex Mono Light"
WEIGHT_NAME "Light"
SLANT "I"
SETWIDTH_NAME "Normal"
ADD_STYLE_NAME ""
PIXEL_SIZE 20
POINT_SIZE 190
RESOLUTION_X 75
RESOLUTION_Y 75
SPACING "C"
AVERAGE_WIDTH 120
CHARSET_REGISTRY "ISO10646"
CHARSET_ENCODING "1"
FONTNAME_REGISTRY ""
CHARSET_COLLECTIONS "ISO10646-1"
FONT_NAME "IBMPlexMono-LightItalic"
FACE_NAME "IBM Plex Mono Light Italic"
COPYRIGHT "Copyright 2017 IBM Corp. All rights reserved."
FONT_VERSION "2.1"
FONT_ASCENT 16
FONT_DESCENT 4
UNDERLINE_POSITION -4
UNDERLINE_THICKNESS 1
X_HEIGHT 9
CAP_HEIGHT 13
RAW_ASCENT 780
RAW_DESCENT 220
ITALIC_ANGLE 5184
NORM_SPACE 12
RELATIVE_WEIGHT 30
RELATIVE_SETWIDTH 50
SUPERSCRIPT_X 1
SUPERSCRIPT_Y 7
SUPERSCRIPT_SIZE 12
SUBSCRIPT_X 0
SUBSCRIPT_Y 1
SUBSCRIPT_SIZE 12
FIGURE_WIDTH 12
AVG_LOWERCASE_WIDTH 120
AVG_UPPERCASE_WIDTH 120
ENDPROPERTIES
CHARS 95
STARTCHAR space
ENCODING 32
SWIDTH 600 0
DWIDTH 12 0
BBX 1 1 0 0
BITMAP
00
ENDCHAR
STARTCHAR exclam
ENCODING 33
SWIDTH 600 0
DWIDTH 12 0
BBX 4 14 4 0
BITMAP
10
10
30
30
20
20
20
20
40
40
00
00
C0
C0
ENDCHAR
STARTCHAR quotedbl
ENCODING 34
SWIDTH 600 0
DWIDTH 12 0
BBX 5 5 5 10
BITMAP
C8
90
90
90
90
ENDCHAR
STARTCHAR numbersign
ENCODING 35
SWIDTH 600 0
DWIDTH 12 0
BBX 12 14 0 0
BITMAP
0220
0240
0640
0440
3CF0
0C80
0880
0980
0900
F1E0
1300
1200
2200
2400
ENDCHAR
STARTCHAR dollar
ENCODING 36
SWIDTH 600 0
DWIDTH 12 0
BBX 11 18 1 -2
BITMAP
0200
0200
1F80
32C0
6460
4400
4400
2400
1C00
0700
0880
0880
0880
8880
C900
3E00
1000
1000
ENDCHAR
STARTCHAR percent
ENCODING 37
SWIDTH 600 0
DWIDTH 12 0
BBX 13 14 0 0
BITMAP
1C08
2210
2220
4260
4240
2680
3C00
01C0
0A20
1220
2420
4420
4260
83C0
ENDCHAR
STARTCHAR ampersand
ENCODING 38
SWIDTH 600 0
DWIDTH 12 0
BBX 12 14 0 0
BITMAP
0F00
1880
10C0
1040
10C0
0880
1900
6600
C400
8200
8320
8330
44A0
38C0
ENDCHAR
STARTCHAR quotesingle
ENCODING 39
SWIDTH 600 0
DWIDTH 12 0
BBX 2 5 6 10
BITMAP
40
40
40
C0
80
ENDCHAR
STARTCHAR parenleft
ENCODING 40
SWIDTH 600 0
DWIDTH 12 0
BBX 7 18 4 -3
BITMAP
06
08
18
10
20
20
40
40
40
80
80
80
80
40
40
40
20
10
ENDCHAR
STARTCHAR parenright
ENCODING 41
SWIDTH 600 0
DWIDTH 12 0
BBX 7 18 1 -3
BITMAP
18
08
04
04
02
02
02
02
02
02
02
04
04
08
08
10
20
C0
ENDCHAR
STARTCHAR asterisk
ENCODING 42
SWIDTH 600 0
DWIDTH 12 0
BBX 10 10 1 1
BITMAP
0600
0400
0400
8440
7780
0C00
1C00
3200
2200
4100
ENDCHAR
STARTCHAR plus
ENCODING 43
SWIDTH 600 0
DWIDTH 12 0
BBX 10 9 1 2
BITMAP
0600
0400
0400
0400
FFC0
0C00
0800
0800
0800
ENDCHAR
STARTCHAR comma
ENCODING 44
SWIDTH 600 0
DWIDTH 12 0
BBX 4 5 3 -3
BITMAP
30
60
40
40
80
ENDCHAR
STARTCHAR hyphen
ENCODING 45
SWIDTH 600 0
DWIDTH 12 0
BBX 6 1 3 6
BITMAP
FC
ENDCHAR
STARTCHAR period
ENCODING 46
SWIDTH 600 0
DWIDTH 12 0
BBX 2 2 4 0
BITMAP
C0
C0
ENDCHAR
STARTCHAR slash
ENCODING 47
SWIDTH 600 0
DWIDTH 12 0
BBX 11 18 1 -3
BITMAP
0060
0040
0080
0080
0100
0100
0200
0600
0400
0800
0800
1000
1000
2000
2000
4000
8000
8000
ENDCHAR
STARTCHAR zero
ENCODING 48
SWIDTH 600 0
DWIDTH 12 0
BBX 10 14 1 0
BITMAP
0F80
10C0
2040
6040
4040
4040
4C40
CC40
C040
C080
C080
4180
6300
3C00
ENDCHAR
STARTCHAR one
ENCODING 49
SWIDTH 600 0
DWIDTH 12 0
BBX 9 14 1 0
BITMAP
0700
0E00
1200
6200
4200
0600
0400
0400
0400
0400
0400
0C00
0800
FF80
ENDCHAR
STARTCHAR two
ENCODING 50
SWIDTH 600 0
DWIDTH 12 0
BBX 10 14 1 0
BITMAP
0F00
3080
2040
4040
0040
0080
0180
0300
0600
0C00
1000
2000
C000
FF80
ENDCHAR
STARTCHAR three
ENCODING 51
SWIDTH 600 0
DWIDTH 12 0
BBX 10 14 1 0
BITMAP
0F00
3080
2040
0040
0080
0180
1E00
0300
0080
0080
0080
8180
C300
7C00
ENDCHAR
STARTCHAR four
ENCODING 52
SWIDTH 600 0
DWIDTH 12 0
BBX 11 14 0 0
BITMAP
00C0
00C0
0140
0240
0440
08C0
1880
1080
2080
4080
7FE0
8180
0100
0100
ENDCHAR
STARTCHAR five
ENCODING 53
SWIDTH 600 0
DWIDTH 12 0
BBX 10 14 1 0
BITMAP
1FC0
1000
2000
2000
2000
2F00
7180
0080
0080
0080
0080
8180
4300
3E00
ENDCHAR
STARTCHAR six
ENCODING 54
SWIDTH 600 0
DWIDTH 12 0
BBX 10 14 1 0
BITMAP
0380
0400
0800
1000
2000
2F00
7180
4080
C080
C0C0
C080
4180
6300
3E00
ENDCHAR
STARTCHAR seven
ENCODING 55
SWIDTH 600 0
DWIDTH 12 0
BBX 10 14 2 0
BITMAP
7FC0
4080
8080
8100
0300
0200
0400
0400
0800
1800
1000
3000
2000
4000
ENDCHAR
STARTCHAR eight
ENCODING 56
SWIDTH 600 0
DWIDTH 12 0
BBX 10 14 1 0
BITMAP
0F80
30C0
2040
2040
2040
3080
0F00
7180
4080
80C0
8080
8080
4100
3E00
ENDCHAR
STARTCHAR nine
ENCODING 57
SWIDTH 600 0
DWIDTH 12 0
BBX 9 14 2 0
BITMAP
1E00
6100
4080
8080
8080
8080
8180
C300
3D00
0200
0400
0C00
1000
6000
ENDCHAR
STARTCHAR colon
ENCODING 58
SWIDTH 600 0
DWIDTH 12 0
BBX 4 10 4 0
BITMAP
30
30
00
00
00
00
00
00
C0
C0
ENDCHAR
STARTCHAR semicolon
ENCODING 59
SWIDTH 600 0
DWIDTH 12 0
BBX 5 13 3 -3
BITMAP
18
18
00
00
00
00
00
00
30
60
40
40
80
ENDCHAR
STARTCHAR less
ENCODING 60
SWIDTH 600 0
DWIDTH 12 0
BBX 9 11 2 1
BITMAP
0080
0180
0600
1800
6000
8000
4000
3000
0800
0600
0100
ENDCHAR
STARTCHAR equal
ENCODING 61
SWIDTH 600 0
DWIDTH 12 0
BBX 10 5 1 4
BITMAP
7FC0
0000
0000
0000
FFC0
ENDCHAR
STARTCHAR greater
ENCODING 62
SWIDTH 600 0
DWIDTH 12 0
BBX 10 11 1 1
BITMAP
2000
3000
0C00
0600
0180
00C0
0300
0600
1800
6000
8000
ENDCHAR
STARTCHAR question
ENCODING 63
SWIDTH 600 0
DWIDTH 12 0
BBX 8 14 3 0
BITMAP
3C
42
81
81
01
03
06
3C
20
20
20
00
60
60
ENDCHAR
STARTCHAR at
ENCODING 64
SWIDTH 600 0
DWIDTH 12 0
BBX 10 16 1 -2
BITMAP
0F00
10C0
2040
2040
4740
4CC0
4840
4880
5880
9080
9980
8E80
8000
4000
6000
3E00
ENDCHAR
STARTCHAR A
ENCODING 65
SWIDTH 600 0
DWIDTH 12 0
BBX 10 14 0 0
BITMAP
0300
0380
0680
0480
0480
0880
0880
1080
10C0
3FC0
2040
4040
4040
8040
ENDCHAR
STARTCHAR B
ENCODING 66
SWIDTH 600 0
DWIDTH 12 0
BBX 10 14 1 0
BITMAP
3F80
20C0
2040
2040
20C0
6080
7F00
4180
4080
4080
4080
C080
8100
FE00
ENDCHAR
STARTCHAR C
ENCODING 67
SWIDTH 600 0
DWIDTH 12 0
BBX 9 14 2 0
BITMAP
0F00
3180
6080
4000
C000
8000
8000
8000
8000
8000
8100
8100
C200
3C00
ENDCHAR
STARTCHAR D
ENCODING 68
SWIDTH 600 0
DWIDTH 12 0
BBX 10 14 1 0
BITMAP
3F00
2080
2040
2040
2040
2040
6040
4040
4040
40C0
4080
4180
C300
FC00
ENDCHAR
STARTCHAR E
ENCODING 69
SWIDTH 600 0
DWIDTH 12 0
BBX 11 14 1 0
BITMAP
3FE0
2000
2000
2000
2000
6000
7FC0
4000
4000
4000
4000
C000
C000
FF80
ENDCHAR
STARTCHAR F
ENCODING 70
SWIDTH 600 0
DWIDTH 12 0
BBX 11 14 1 0
BITMAP
3FE0
2000
2000
2000
2000
6000
7F80
4000
4000
4000
4000
C000
C000
8000
ENDCHAR
STARTCHAR G
ENCODING 71
SWIDTH 600 0
DWIDTH 12 0
BBX 10 14 1 0
BITMAP
0F80
18C0
2040
2000
4000
4000
4000
47C0
4080
C080
4080
4180
6280
3D80
ENDCHAR
STARTCHAR H
ENCODING 72
SWIDTH 600 0
DWIDTH 12 0
BBX 11 14 1 0
BITMAP
2060
2040
2040
2040
6040
4040
7FC0
4080
4080
4080
C080
8080
8180
8100
ENDCHAR
STARTCHAR I
ENCODING 73
SWIDTH 600 0
DWIDTH 12 0
BBX 11 14 1 0
BITMAP
3FE0
0200
0600
0400
0400
0400
0400
0400
0C00
0800
0800
0800
0800
FF80
ENDCHAR
STARTCHAR J
ENCODING 74
SWIDTH 600 0
DWIDTH 12 0
BBX 10 14 1 0
BITMAP
1FC0
00C0
0080
0080
0080
0080
0080
0180
0100
0100
0100
C100
4200
3C00
ENDCHAR
STARTCHAR K
ENCODING 75
SWIDTH 600 0
DWIDTH 12 0
BBX 12 14 1 0
BITMAP
3030
2040
2080
2100
2200
6400
4C00
5400
6200
4200
4300
C100
8180
8080
ENDCHAR
STARTCHAR L
ENCODING 76
SWIDTH 600 0
DWIDTH 12 0
BBX 8 14 2 0
BITMAP
20
20
20
60
60
40
40
40
40
40
C0
80
80
FF
ENDCHAR
STARTCHAR M
ENCODING 77
SWIDTH 600 0
DWIDTH 12 0
BBX 11 14 1 0
BITMAP
3060
3060
30E0
51C0
4940
4A40
4A40
4C40
44C0
8880
8080
8080
8080
8080
ENDCHAR
STARTCHAR N
ENCODING 78
SWIDTH 600 0
DWIDTH 12 0
BBX 11 14 1 0
BITMAP
3020
3040
2840
2840
6840
4840
4440
4480
4480
4680
C280
8280
8280
8100
ENDCHAR
STARTCHAR O
ENCODING 79
SWIDTH 600 0
DWIDTH 12 0
BBX 10 14 1 0
BITMAP
0F80
10C0
2040
6040
4040
4040
4040
C040
C040
C080
C080
4180
6300
3C00
ENDCHAR
STARTCHAR P
ENCODING 80
SWIDTH 600 0
DWIDTH 12 0
BBX 11 14 1 0
BITMAP
3F80
2040
2060
2060
2040
6040
60C0
7F00
4000
4000
4000
C000
C000
8000
ENDCHAR
STARTCHAR Q
ENCODING 81
SWIDTH 600 0
DWIDTH 12 0
BBX 10 18 1 -4
BITMAP
0F80
10C0
2040
2040
4040
4040
4040
C040
C040
C080
C080
4180
6300
3C00
0800
0480
05C0
0300
ENDCHAR
STARTCHAR R
ENCODING 82
SWIDTH 600 0
DWIDTH 12 0
BBX 11 14 1 0
BITMAP
3F80
2040
2060
2060
2040
6040
60C0
7F00
4400
4200
4200
C300
C100
8180
ENDCHAR
STARTCHAR S
ENCODING 83
SWIDTH 600 0
DWIDTH 12 0
BBX 11 14 1 0
BITMAP
1F80
30C0
6060
4000
4000
2000
1C00
0300
0080
0080
0080
8080
C100
3E00
ENDCHAR
STARTCHAR T
ENCODING 84
SWIDTH 600 0
DWIDTH 12 0
BBX 11 14 2 0
BITMAP
FFE0
0400
0C00
0800
0800
0800
0800
0800
1800
1000
1000
1000
1000
1000
ENDCHAR
STARTCHAR U
ENCODING 85
SWIDTH 600 0
DWIDTH 12 0
BBX 10 14 2 0
BITMAP
40C0
4080
4080
4080
C080
8080
8180
8100
8100
8100
8100
8200
8600
7C00
ENDCHAR
STARTCHAR V
ENCODING 86
SWIDTH 600 0
DWIDTH 12 0
BBX 11 14 2 0
BITMAP
C060
4040
4080
4080
4100
4100
4200
6200
2600
2400
2C00
2800
3800
3000
ENDCHAR
STARTCHAR W
ENCODING 87
SWIDTH 600 0
DWIDTH 12 0
BBX 12 14 1 0
BITMAP
4030
4020
4020
4020
4640
4A40
4A40
4A40
5280
5280
A280
A280
A300
C300
ENDCHAR
STARTCHAR X
ENCODING 88
SWIDTH 600 0
DWIDTH 12 0
BBX 13 14 0 0
BITMAP
3018
1020
0860
08C0
0480
0500
0200
0600
0D00
0900
1080
2080
4040
C040
ENDCHAR
STARTCHAR Y
ENCODING 89
SWIDTH 600 0
DWIDTH 12 0
BBX 11 14 2 0
BITMAP
8060
40C0
4080
6100
2300
3600
1400
1800
1800
1000
1000
1000
1000
1000
ENDCHAR
STARTCHAR Z
ENCODING 90
SWIDTH 600 0
DWIDTH 12 0
BBX 12 14 0 0
BITMAP
1FF0
0030
0060
00C0
0080
0100
0200
0400
0C00
1800
3000
2000
4000
FFC0
ENDCHAR
STARTCHAR bracketleft
ENCODING 91
SWIDTH 600 0
DWIDTH 12 0
BBX 9 18 3 -3
BITMAP
1F80
1000
1000
1000
1000
1000
2000
2000
2000
2000
2000
2000
4000
4000
4000
4000
4000
FC00
ENDCHAR
STARTCHAR backslash
ENCODING 92
SWIDTH 600 0
DWIDTH 12 0
BBX 5 18 4 -3
BITMAP
80
80
80
80
40
40
40
40
20
20
20
20
20
10
10
10
10
08
ENDCHAR
STARTCHAR bracketright
ENCODING 93
SWIDTH 600 0
DWIDTH 12 0
BBX 9 18 0 -3
BITMAP
1F80
0100
0100
0100
0100
0100
0200
0200
0200
0200
0200
0200
0400
0400
0400
0400
0400
FC00
ENDCHAR
STARTCHAR asciicircum
ENCODING 94
SWIDTH 600 0
DWIDTH 12 0
BBX 10 8 1 6
BITMAP
0200
0500
0900
1980
1080
2080
4040
C040
ENDCHAR
STARTCHAR underscore
ENCODING 95
SWIDTH 600 0
DWIDTH 12 0
BBX 10 1 0 -3
BITMAP
FFC0
ENDCHAR
STARTCHAR grave
ENCODING 96
SWIDTH 600 0
DWIDTH 12 0
BBX 2 4 5 12
BITMAP
80
80
40
40
ENDCHAR
STARTCHAR a
ENCODING 97
SWIDTH 600 0
DWIDTH 12 0
BBX 10 10 1 0
BITMAP
1E40
2180
4080
4080
C080
8080
8180
C100
4300
3D00
ENDCHAR
STARTCHAR b
ENCODING 98
SWIDTH 600 0
DWIDTH 12 0
BBX 10 15 1 0
BITMAP
1000
3000
2000
2000
2000
2F00
3080
20C0
6040
4040
40C0
4080
4080
6100
9E00
ENDCHAR
STARTCHAR c
ENCODING 99
SWIDTH 600 0
DWIDTH 12 0
BBX 8 10 2 0
BITMAP
1E
63
C1
80
80
80
82
83
C6
78
ENDCHAR
STARTCHAR d
ENCODING 100
SWIDTH 600 0
DWIDTH 12 0
BBX 10 15 1 0
BITMAP
0040
0040
0040
0040
0040
1E40
2180
4080
4080
C080
8080
8180
C100
4300
3D00
ENDCHAR
STARTCHAR e
ENCODING 101
SWIDTH 600 0
DWIDTH 12 0
BBX 8 10 2 0
BITMAP
1E
61
C1
81
86
F8
80
81
C2
7C
ENDCHAR
STARTCHAR f
ENCODING 102
SWIDTH 600 0
DWIDTH 12 0
BBX 13 19 0 -4
BITMAP
01F8
0100
0100
0100
0100
1FF0
0200
0200
0200
0200
0200
0400
0400
0400
0400
8400
4C00
2800
1800
ENDCHAR
STARTCHAR g
ENCODING 103
SWIDTH 600 0
DWIDTH 12 0
BBX 10 14 1 -4
BITMAP
1E40
2180
4080
4080
C080
8080
8180
C100
4300
3D00
0100
0300
8600
7C00
ENDCHAR
STARTCHAR h
ENCODING 104
SWIDTH 600 0
DWIDTH 12 0
BBX 9 15 1 0
BITMAP
1000
1000
3000
2000
2000
2700
3880
2080
6080
4080
4080
4080
4100
4100
C100
ENDCHAR
STARTCHAR i
ENCODING 105
SWIDTH 600 0
DWIDTH 12 0
BBX 8 14 2 0
BITMAP
0C
0C
00
00
F8
18
10
10
10
10
31
26
2C
30
ENDCHAR
STARTCHAR j
ENCODING 106
SWIDTH 600 0
DWIDTH 12 0
BBX 8 19 2 -4
BITMAP
01
03
00
00
00
7E
02
02
02
02
04
04
04
04
04
84
48
28
18
ENDCHAR
STARTCHAR k
ENCODING 107
SWIDTH 600 0
DWIDTH 12 0
BBX 10 15 1 0
BITMAP
1000
1000
3000
2000
2000
2700
3880
2080
6080
4100
5E00
4840
4440
4580
C300
ENDCHAR
STARTCHAR l
ENCODING 108
SWIDTH 600 0
DWIDTH 12 0
BBX 8 15 2 0
BITMAP
F8
08
08
08
18
10
10
10
10
30
21
23
26
28
30
ENDCHAR
STARTCHAR m
ENCODING 109
SWIDTH 600 0
DWIDTH 12 0
BBX 11 10 0 0
BITMAP
2EE0
3320
2220
2220
4220
4220
4420
4440
4440
C440
ENDCHAR
STARTCHAR n
ENCODING 110
SWIDTH 600 0
DWIDTH 12 0
BBX 9 10 1 0
BITMAP
2700
3880
2080
2080
4080
4080
4080
4100
4100
C100
ENDCHAR
STARTCHAR o
ENCODING 111
SWIDTH 600 0
DWIDTH 12 0
BBX 10 10 1 0
BITMAP
1F00
3180
6080
40C0
40C0
C080
C080
4180
4300
3E00
ENDCHAR
STARTCHAR p
ENCODING 112
SWIDTH 600 0
DWIDTH 12 0
BBX 10 14 1 -4
BITMAP
2F00
3080
20C0
6040
4040
40C0
4080
4080
6100
9E00
8000
8000
8000
8000
ENDCHAR
STARTCHAR q
ENCODING 113
SWIDTH 600 0
DWIDTH 12 0
BBX 10 14 1 -4
BITMAP
1E40
2180
4080
4080
C080
8080
8180
C100
4300
3D00
0100
0100
0300
0200
ENDCHAR
STARTCHAR r
ENCODING 114
SWIDTH 600 0
DWIDTH 12 0
BBX 10 10 2 0
BITMAP
FBC0
1400
1800
1000
1000
1000
3000
2000
2000
2000
ENDCHAR
STARTCHAR s
ENCODING 115
SWIDTH 600 0
DWIDTH 12 0
BBX 10 10 1 0
BITMAP
1F00
20C0
2000
6000
3C00
0380
0080
0080
C100
3E00
ENDCHAR
STARTCHAR t
ENCODING 116
SWIDTH 600 0
DWIDTH 12 0
BBX 9 14 2 0
BITMAP
0800
0800
1000
1000
FF80
1000
1000
3000
2000
2000
2100
2600
2C00
3000
ENDCHAR
STARTCHAR u
ENCODING 117
SWIDTH 600 0
DWIDTH 12 0
BBX 9 10 2 0
BITMAP
4180
4100
4100
8100
8100
8100
8200
8200
8E00
7200
ENDCHAR
STARTCHAR v
ENCODING 118
SWIDTH 600 0
DWIDTH 12 0
BBX 10 10 1 0
BITMAP
7080
9040
1040
2040
2080
2080
2180
2300
2600
3800
ENDCHAR
STARTCHAR w
ENCODING 119
SWIDTH 600 0
DWIDTH 12 0
BBX 10 10 1 0
BITMAP
4640
4440
4440
4440
4440
8440
8840
88C0
9880
6700
ENDCHAR
STARTCHAR x
ENCODING 120
SWIDTH 600 0
DWIDTH 12 0
BBX 12 10 0 0
BITMAP
1CE0
3530
4610
0210
0200
0600
8600
8A20
CAC0
7380
ENDCHAR
STARTCHAR y
ENCODING 121
SWIDTH 600 0
DWIDTH 12 0
BBX 10 14 1 -4
BITMAP
20C0
2080
2080
4080
4080
4080
4100
4100
4700
3900
0100
0200
8600
7C00
ENDCHAR
STARTCHAR z
ENCODING 122
SWIDTH 600 0
DWIDTH 12 0
BBX 10 10 1 0
BITMAP
3E40
41C0
4180
0300
0400
0800
3080
6080
F880
8F80
ENDCHAR
STARTCHAR braceleft
ENCODING 123
SWIDTH 600 0
DWIDTH 12 0
BBX 9 18 2 -3
BITMAP
0780
0800
0800
0800
0800
0400
0400
0400
F800
0800
0400
0800
1000
1000
2000
2000
2000
3E00
ENDCHAR
STARTCHAR bar
ENCODING 124
SWIDTH 600 0
DWIDTH 12 0
BBX 4 18 4 -3
BITMAP
10
10
10
10
20
20
20
20
20
20
40
40
40
40
40
40
80
80
ENDCHAR
STARTCHAR braceright
ENCODING 125
SWIDTH 600 0
DWIDTH 12 0
BBX 9 18 1 -3
BITMAP
1E00
0300
0200
0200
0400
0800
0800
0800
0780
0C00
1000
1000
0800
0800
0800
0800
0800
F800
ENDCHAR
STARTCHAR asciitilde
ENCODING 126
SWIDTH 600 0
DWIDTH 12 0
BBX 10 2 1 5
BITMAP
7840
C780
ENDCHAR
ENDFONT
